<svg width="1027" height="321" viewBox="0 0 1027 321" fill="none" xmlns="http://www.w3.org/2000/svg">
<path d="M909.642 296.033L895.351 318.859L858.892 296.033H909.642ZM21.4521 1.07227H575.338L576.527 2.7627C585.347 15.2924 599.925 23.4824 616.416 23.4824C632.907 23.4823 647.485 15.2922 656.304 2.7627L657.493 1.07227H1001.79C1013.05 1.07227 1022.17 10.1971 1022.17 21.4521V82.0264L1002.69 85.0908L1001.63 85.2578L1001.8 86.3174L1005.6 110.458L1006 113.016L1007.52 110.923L1022.17 90.8057V160.843C1021.85 161.382 1021.45 162.034 1020.96 162.775C1019.46 165.046 1017.17 168.16 1014.01 171.508C1007.89 177.995 998.511 185.345 985.308 189.181L984.018 189.541C970.13 193.262 957.55 191.637 948.428 189.071C943.868 187.789 940.181 186.275 937.638 185.083C936.367 184.487 935.383 183.973 934.721 183.609C934.389 183.428 934.138 183.284 933.972 183.187C933.889 183.138 933.827 183.1 933.787 183.076L933.733 183.044L933.731 183.043L933.166 183.955C932.607 184.856 932.601 184.867 932.602 184.867H932.604C932.605 184.868 932.607 184.869 932.608 184.87C932.612 184.872 932.617 184.876 932.623 184.88C932.636 184.888 932.655 184.9 932.679 184.914C932.727 184.943 932.797 184.985 932.889 185.038C933.071 185.145 933.34 185.299 933.689 185.49C934.388 185.873 935.412 186.409 936.728 187.025C939.358 188.258 943.156 189.817 947.848 191.137C956.934 193.692 969.405 195.355 983.23 191.958L984.573 191.613C998.936 187.765 1009.05 179.886 1015.57 172.98C1018.45 169.931 1020.63 167.067 1022.17 164.816V293.888H913.517L935.716 258.429L936.285 257.52L935.376 256.95L879.24 221.806L878.331 221.237L877.762 222.146L838.646 284.624L838.077 285.533L838.986 286.103L851.422 293.888H761.308V278.129H733.208L748.967 293.888H541.174C553.517 260.772 558.881 230.757 561.152 208.921C562.305 197.843 562.662 188.867 562.73 182.655C562.765 179.55 562.727 177.135 562.681 175.493C562.657 174.673 562.632 174.045 562.612 173.621C562.602 173.409 562.594 173.248 562.588 173.14C562.585 173.085 562.583 173.044 562.581 173.016C562.58 173.002 562.58 172.991 562.579 172.983C562.579 172.98 562.578 172.977 562.578 172.975V172.973C562.578 172.972 562.578 172.971 561.508 173.039C560.437 173.108 560.437 173.108 560.438 173.108V173.115C560.438 173.121 560.439 173.131 560.439 173.144C560.441 173.169 560.443 173.207 560.446 173.258C560.452 173.36 560.46 173.515 560.47 173.721C560.489 174.132 560.513 174.746 560.536 175.554C560.582 177.169 560.62 179.556 560.586 182.632C560.518 188.785 560.164 197.694 559.019 208.699C556.744 230.56 551.349 260.679 538.882 293.888H1.07227V21.4521C1.07227 10.1971 10.1971 1.07227 21.4521 1.07227ZM933.328 258.199L910.985 293.888H855.465L841.033 284.853L879.011 224.192L933.328 258.199ZM759.162 280.274V293.888H752L738.387 280.274H759.162ZM379.337 146.45L320.668 177.179L319.718 177.677L320.215 178.627L354.416 243.925L354.914 244.875L355.864 244.377L414.533 213.648L415.483 213.15L414.985 212.2L380.785 146.902L380.287 145.952L379.337 146.45ZM230.357 243.146C230.357 268.883 209.494 289.746 183.758 289.746C158.021 289.746 137.157 268.883 137.157 243.146C137.157 217.41 158.021 196.546 183.758 196.546C209.494 196.546 230.357 217.41 230.357 243.146ZM412.587 212.245L355.818 241.979L322.612 178.581L379.382 148.848L412.587 212.245ZM736.101 140.33L663.641 153.859L662.586 154.057L662.783 155.11L676.434 228.218L676.63 229.271L677.685 229.075L750.145 215.545L751.199 215.349L751.002 214.294L737.352 141.188L737.155 140.133L736.101 140.33ZM748.696 213.633L678.345 226.769L665.088 155.771L735.439 142.635L748.696 213.633ZM152.531 154.34C113.832 154.34 83.0876 167.242 62.0264 180.137C51.4958 186.584 43.3806 193.033 37.8936 197.874C35.1498 200.295 33.0616 202.315 31.6572 203.732C30.9552 204.441 30.4239 205 30.0664 205.383C29.8877 205.574 29.7525 205.723 29.6611 205.823C29.6155 205.874 29.5803 205.912 29.5566 205.938C29.5449 205.952 29.5356 205.962 29.5293 205.969C29.5262 205.972 29.5242 205.976 29.5225 205.978C29.5217 205.978 29.521 205.979 29.5205 205.979C29.5199 205.98 29.5185 205.981 30.3223 206.691C31.1261 207.402 31.1269 207.401 31.127 207.401L31.1279 207.4C31.1289 207.399 31.1305 207.397 31.1328 207.395C31.1376 207.389 31.1451 207.38 31.1553 207.369C31.1757 207.346 31.2068 207.311 31.249 207.265C31.3338 207.171 31.463 207.031 31.6348 206.847C31.9784 206.479 32.4952 205.935 33.1816 205.242C34.5551 203.856 36.6078 201.87 39.3125 199.483C44.7228 194.71 52.7388 188.339 63.1465 181.967C83.9627 169.222 114.323 156.485 152.531 156.485C190.742 156.485 221.897 169.224 243.511 181.976C254.316 188.351 262.73 194.724 268.438 199.501C271.292 201.889 273.468 203.877 274.929 205.265C275.659 205.959 276.21 206.503 276.577 206.872C276.761 207.056 276.898 207.196 276.989 207.29C277.035 207.337 277.068 207.372 277.09 207.396C277.101 207.407 277.109 207.415 277.114 207.421L277.121 207.428C277.123 207.426 277.164 207.388 277.9 206.691C278.68 205.955 278.679 205.954 278.679 205.953C278.678 205.953 278.678 205.952 278.677 205.951C278.675 205.949 278.672 205.946 278.669 205.942C278.662 205.935 278.652 205.925 278.64 205.912C278.615 205.886 278.578 205.848 278.529 205.798C278.432 205.698 278.288 205.55 278.098 205.358C277.717 204.976 277.151 204.418 276.406 203.71C274.916 202.294 272.705 200.276 269.814 197.856C264.033 193.018 255.524 186.572 244.601 180.128C222.757 167.241 191.227 154.34 152.531 154.34ZM1022.17 87.1611L1007.31 107.566L1004.08 87.043L1022.17 84.1982V87.1611ZM510.408 14.9453L437.948 28.4746L436.894 28.6719L437.09 29.7266L450.74 102.833L450.938 103.888L451.992 103.69L524.452 90.1611L525.506 89.9639L525.31 88.9102L511.659 15.8027L511.462 14.749L510.408 14.9453ZM523.004 88.249L452.652 101.385L439.396 30.3867L509.747 17.251L523.004 88.249ZM869.183 96.8008H959.462V20.9434H869.183V96.8008ZM957.317 23.0889V94.6562H871.328V23.0889H957.317ZM263.698 22.1797L217.511 35.5127L216.48 35.8096L216.777 36.8398L230.109 83.0283L230.828 85.5156L232.079 83.249L264.935 23.7295L266.187 21.4619L263.698 22.1797ZM1024.32 84.2148V83.8604L1024.61 83.8154L1024.32 84.2148ZM231.452 79.9443L219.136 37.2754L261.805 24.959L231.452 79.9443ZM746.215 57.3926C731.345 57.3926 719.535 62.3842 711.45 67.3672C707.408 69.8588 704.291 72.3513 702.181 74.2256C701.125 75.163 700.32 75.9466 699.776 76.499C699.505 76.7752 699.298 76.9943 699.158 77.1455C699.088 77.2209 699.035 77.2796 698.998 77.3203C698.98 77.3407 698.965 77.3569 698.955 77.3682C698.95 77.3736 698.946 77.3777 698.943 77.3809C698.942 77.3825 698.94 77.3837 698.939 77.3848L698.938 77.3867L700.55 78.8027L700.559 78.7939C700.565 78.7863 700.576 78.7735 700.591 78.7568C700.621 78.7233 700.668 78.6717 700.731 78.6035C700.858 78.4672 701.05 78.2642 701.306 78.0039C701.818 77.4829 702.588 76.7328 703.604 75.8301C705.638 74.0238 708.656 71.609 712.575 69.1934C720.415 64.3614 731.84 59.5371 746.215 59.5371C760.593 59.5371 772.323 64.363 780.471 69.2021C784.543 71.6208 787.713 74.0384 789.86 75.8477C790.934 76.7519 791.751 77.5039 792.297 78.0264C792.57 78.2876 792.776 78.4919 792.911 78.6289C792.979 78.6972 793.029 78.7485 793.062 78.7822C793.078 78.799 793.089 78.8115 793.097 78.8193C793.1 78.8232 793.103 78.8266 793.104 78.8281L793.105 78.8291H793.106L794.669 77.3604L794.668 77.3584L794.651 77.3418C794.641 77.3307 794.626 77.3151 794.606 77.2949C794.567 77.2545 794.511 77.1954 794.437 77.1201C794.288 76.9696 794.068 76.752 793.78 76.4766C793.204 75.9255 792.353 75.1429 791.242 74.207C789.021 72.3358 785.755 69.846 781.565 67.3574C773.188 62.3817 761.081 57.3926 746.215 57.3926ZM653.302 3.21777C644.777 14.2414 631.425 21.3368 616.416 21.3369C601.406 21.3369 588.054 14.2415 579.529 3.21777H653.302ZM232.503 243.146C232.503 216.225 210.679 194.402 183.758 194.401C156.837 194.401 135.012 216.225 135.012 243.146C135.012 270.068 156.837 291.892 183.758 291.892C210.679 291.891 232.503 270.068 232.503 243.146Z" stroke="white" stroke-opacity="0.38" stroke-width="2.14517"/>
</svg>
