<svg width="48" height="49" viewBox="0 0 48 49" fill="none" xmlns="http://www.w3.org/2000/svg">
<path d="M30 24.9654C30 26.1521 29.6481 27.3121 28.9888 28.2988C28.3295 29.2855 27.3925 30.0545 26.2961 30.5087C25.1997 30.9628 23.9933 31.0816 22.8295 30.8501C21.6656 30.6186 20.5965 30.0471 19.7574 29.208C18.9182 28.3689 18.3468 27.2998 18.1153 26.1359C17.8838 24.972 18.0026 23.7656 18.4567 22.6693C18.9108 21.5729 19.6799 20.6359 20.6666 19.9766C21.6533 19.3173 22.8133 18.9654 24 18.9654C25.5907 18.9672 27.1158 19.6 28.2406 20.7248C29.3654 21.8496 29.9982 23.3747 30 24.9654ZM42.75 16.7154V33.2154C42.7468 35.9992 41.6396 38.6681 39.6711 40.6365C37.7027 42.6049 35.0338 43.7122 32.25 43.7154H15.75C12.9662 43.7122 10.2973 42.6049 8.32889 40.6365C6.36044 38.6681 5.25318 35.9992 5.25 33.2154V16.7154C5.25318 13.9316 6.36044 11.2627 8.32889 9.29428C10.2973 7.32584 12.9662 6.21857 15.75 6.21539H32.25C35.0338 6.21857 37.7027 7.32584 39.6711 9.29428C41.6396 11.2627 42.7468 13.9316 42.75 16.7154ZM33 24.9654C33 23.1854 32.4722 21.4453 31.4832 19.9653C30.4943 18.4852 29.0887 17.3317 27.4442 16.6505C25.7996 15.9693 23.99 15.7911 22.2442 16.1383C20.4984 16.4856 18.8947 17.3428 17.636 18.6014C16.3774 19.8601 15.5202 21.4638 15.1729 23.2096C14.8257 24.9554 15.0039 26.765 15.6851 28.4095C16.3663 30.0541 17.5198 31.4597 18.9999 32.4486C20.4799 33.4376 22.22 33.9654 24 33.9654C26.3861 33.9627 28.6738 33.0136 30.361 31.3264C32.0482 29.6391 32.9973 27.3515 33 24.9654ZM36 15.2154C36 14.7704 35.868 14.3354 35.6208 13.9654C35.3736 13.5954 35.0222 13.307 34.611 13.1367C34.1999 12.9664 33.7475 12.9218 33.311 13.0086C32.8746 13.0954 32.4737 13.3097 32.159 13.6244C31.8443 13.9391 31.63 14.34 31.5432 14.7764C31.4564 15.2129 31.501 15.6653 31.6713 16.0764C31.8416 16.4876 32.13 16.839 32.5 17.0862C32.87 17.3334 33.305 17.4654 33.75 17.4654C34.3467 17.4654 34.919 17.2283 35.341 16.8064C35.7629 16.3844 36 15.8121 36 15.2154Z" fill="#25282B"/>
</svg>
