<svg width="1280" height="832" viewBox="0 0 1280 832" fill="none" xmlns="http://www.w3.org/2000/svg">
<rect width="1280" height="832" fill="white"/>
<rect x="39" y="79" width="349" height="76" rx="30.4" fill="#A7C957"/>
<rect x="39" y="185" width="349" height="78" rx="31.2" fill="#7CCFFF"/>
<rect x="39" y="540" width="349" height="78" rx="31.2" fill="#D3D3D3"/>
<rect x="39" y="293" width="349" height="76" rx="30.4" fill="#FEFD97"/>
<rect x="39" y="399" width="349" height="76" rx="30.4" fill="#FF6B6B"/>
<rect x="39" y="637" width="349" height="77" rx="30.8" fill="#403C3C"/>
<rect x="476" y="361" width="252" height="257" rx="25" fill="#403C3C"/>
<rect x="452" y="79" width="375" height="93" rx="15" fill="#1C1C1C"/>
<rect x="452" y="194" width="375" height="93" rx="15" fill="#1C1C1C"/>
<path d="M491.528 140.455V111.364H503.176C505.316 111.364 507.101 111.681 508.531 112.315C509.961 112.95 511.036 113.831 511.756 114.957C512.475 116.075 512.835 117.363 512.835 118.821C512.835 119.957 512.608 120.956 512.153 121.818C511.699 122.67 511.074 123.371 510.278 123.92C509.492 124.46 508.593 124.844 507.58 125.071V125.355C508.688 125.403 509.724 125.715 510.69 126.293C511.666 126.87 512.456 127.68 513.062 128.722C513.669 129.754 513.972 130.985 513.972 132.415C513.972 133.958 513.588 135.336 512.821 136.548C512.063 137.751 510.941 138.703 509.455 139.403C507.968 140.104 506.135 140.455 503.957 140.455H491.528ZM497.679 135.426H502.693C504.407 135.426 505.657 135.099 506.443 134.446C507.229 133.783 507.622 132.903 507.622 131.804C507.622 130.999 507.428 130.289 507.04 129.673C506.652 129.058 506.098 128.575 505.378 128.224C504.668 127.874 503.82 127.699 502.835 127.699H497.679V135.426ZM497.679 123.537H502.239C503.081 123.537 503.83 123.39 504.483 123.097C505.146 122.794 505.667 122.367 506.045 121.818C506.434 121.269 506.628 120.611 506.628 119.844C506.628 118.793 506.254 117.945 505.506 117.301C504.767 116.657 503.716 116.335 502.352 116.335H497.679V123.537ZM523.202 140.867C521.81 140.867 520.569 140.625 519.48 140.142C518.391 139.65 517.529 138.925 516.895 137.969C516.27 137.003 515.957 135.8 515.957 134.361C515.957 133.149 516.18 132.131 516.625 131.307C517.07 130.483 517.676 129.82 518.443 129.318C519.21 128.816 520.081 128.438 521.057 128.182C522.042 127.926 523.074 127.746 524.153 127.642C525.422 127.51 526.445 127.386 527.222 127.273C527.998 127.15 528.562 126.97 528.912 126.733C529.262 126.496 529.437 126.146 529.437 125.682V125.597C529.437 124.697 529.153 124.001 528.585 123.509C528.026 123.016 527.231 122.77 526.199 122.77C525.11 122.77 524.243 123.011 523.599 123.494C522.955 123.968 522.529 124.564 522.321 125.284L516.724 124.83C517.008 123.504 517.567 122.358 518.401 121.392C519.234 120.417 520.309 119.669 521.625 119.148C522.951 118.617 524.485 118.352 526.227 118.352C527.439 118.352 528.599 118.494 529.707 118.778C530.825 119.063 531.814 119.503 532.676 120.099C533.547 120.696 534.234 121.463 534.736 122.401C535.238 123.329 535.489 124.441 535.489 125.739V140.455H529.75V137.429H529.58C529.229 138.111 528.76 138.712 528.173 139.233C527.586 139.744 526.881 140.147 526.057 140.44C525.233 140.724 524.281 140.867 523.202 140.867ZM524.935 136.69C525.825 136.69 526.611 136.515 527.293 136.165C527.974 135.805 528.509 135.322 528.898 134.716C529.286 134.11 529.48 133.423 529.48 132.656V130.341C529.291 130.464 529.03 130.578 528.699 130.682C528.377 130.777 528.012 130.867 527.605 130.952C527.198 131.028 526.791 131.099 526.383 131.165C525.976 131.222 525.607 131.274 525.276 131.321C524.565 131.425 523.945 131.591 523.415 131.818C522.884 132.045 522.473 132.353 522.179 132.742C521.885 133.12 521.739 133.594 521.739 134.162C521.739 134.986 522.037 135.616 522.633 136.051C523.24 136.477 524.007 136.69 524.935 136.69ZM545.354 111.364V140.455H539.303V111.364H545.354ZM559.18 140.881C556.973 140.881 555.065 140.412 553.455 139.474C551.855 138.528 550.619 137.211 549.748 135.526C548.877 133.831 548.441 131.866 548.441 129.631C548.441 127.377 548.877 125.407 549.748 123.722C550.619 122.027 551.855 120.71 553.455 119.773C555.065 118.826 556.973 118.352 559.18 118.352C561.386 118.352 563.289 118.826 564.89 119.773C566.5 120.71 567.74 122.027 568.611 123.722C569.483 125.407 569.918 127.377 569.918 129.631C569.918 131.866 569.483 133.831 568.611 135.526C567.74 137.211 566.5 138.528 564.89 139.474C563.289 140.412 561.386 140.881 559.18 140.881ZM559.208 136.193C560.212 136.193 561.05 135.909 561.722 135.341C562.395 134.763 562.901 133.977 563.242 132.983C563.592 131.989 563.768 130.857 563.768 129.588C563.768 128.319 563.592 127.188 563.242 126.193C562.901 125.199 562.395 124.413 561.722 123.835C561.05 123.258 560.212 122.969 559.208 122.969C558.195 122.969 557.342 123.258 556.651 123.835C555.969 124.413 555.453 125.199 555.103 126.193C554.762 127.188 554.592 128.319 554.592 129.588C554.592 130.857 554.762 131.989 555.103 132.983C555.453 133.977 555.969 134.763 556.651 135.341C557.342 135.909 558.195 136.193 559.208 136.193ZM582.831 140.881C580.624 140.881 578.716 140.412 577.106 139.474C575.506 138.528 574.27 137.211 573.399 135.526C572.528 133.831 572.092 131.866 572.092 129.631C572.092 127.377 572.528 125.407 573.399 123.722C574.27 122.027 575.506 120.71 577.106 119.773C578.716 118.826 580.624 118.352 582.831 118.352C585.037 118.352 586.941 118.826 588.541 119.773C590.151 120.71 591.391 122.027 592.263 123.722C593.134 125.407 593.569 127.377 593.569 129.631C593.569 131.866 593.134 133.831 592.263 135.526C591.391 137.211 590.151 138.528 588.541 139.474C586.941 140.412 585.037 140.881 582.831 140.881ZM582.859 136.193C583.863 136.193 584.701 135.909 585.373 135.341C586.046 134.763 586.552 133.977 586.893 132.983C587.244 131.989 587.419 130.857 587.419 129.588C587.419 128.319 587.244 127.188 586.893 126.193C586.552 125.199 586.046 124.413 585.373 123.835C584.701 123.258 583.863 122.969 582.859 122.969C581.846 122.969 580.994 123.258 580.302 123.835C579.621 124.413 579.105 125.199 578.754 126.193C578.413 127.188 578.243 128.319 578.243 129.588C578.243 130.857 578.413 131.989 578.754 132.983C579.105 133.977 579.621 134.763 580.302 135.341C580.994 135.909 581.846 136.193 582.859 136.193ZM596.567 140.455V136.023L606.922 126.435C607.803 125.582 608.542 124.815 609.138 124.134C609.744 123.452 610.204 122.784 610.516 122.131C610.829 121.468 610.985 120.753 610.985 119.986C610.985 119.134 610.791 118.4 610.403 117.784C610.014 117.159 609.484 116.681 608.812 116.349C608.139 116.009 607.377 115.838 606.525 115.838C605.635 115.838 604.858 116.018 604.195 116.378C603.532 116.738 603.021 117.254 602.661 117.926C602.301 118.599 602.121 119.399 602.121 120.327H596.283C596.283 118.423 596.714 116.771 597.576 115.369C598.438 113.968 599.645 112.884 601.198 112.117C602.751 111.349 604.541 110.966 606.567 110.966C608.651 110.966 610.464 111.335 612.008 112.074C613.561 112.803 614.768 113.816 615.63 115.114C616.492 116.411 616.922 117.898 616.922 119.574C616.922 120.672 616.705 121.757 616.269 122.827C615.843 123.897 615.081 125.085 613.982 126.392C612.884 127.689 611.335 129.247 609.337 131.065L605.09 135.227V135.426H617.306V140.455H596.567Z" fill="white"/>
<path d="M491.528 255.455V226.364H497.679V250.384H510.151V255.455H491.528ZM519.452 255.867C518.06 255.867 516.819 255.625 515.73 255.142C514.641 254.65 513.779 253.925 513.145 252.969C512.52 252.003 512.207 250.8 512.207 249.361C512.207 248.149 512.43 247.131 512.875 246.307C513.32 245.483 513.926 244.82 514.693 244.318C515.46 243.816 516.331 243.438 517.307 243.182C518.292 242.926 519.324 242.746 520.403 242.642C521.672 242.51 522.695 242.386 523.472 242.273C524.248 242.15 524.812 241.97 525.162 241.733C525.512 241.496 525.687 241.146 525.687 240.682V240.597C525.687 239.697 525.403 239.001 524.835 238.509C524.276 238.016 523.481 237.77 522.449 237.77C521.36 237.77 520.493 238.011 519.849 238.494C519.205 238.968 518.779 239.564 518.571 240.284L512.974 239.83C513.258 238.504 513.817 237.358 514.651 236.392C515.484 235.417 516.559 234.669 517.875 234.148C519.201 233.617 520.735 233.352 522.477 233.352C523.689 233.352 524.849 233.494 525.957 233.778C527.075 234.063 528.064 234.503 528.926 235.099C529.797 235.696 530.484 236.463 530.986 237.401C531.488 238.329 531.739 239.441 531.739 240.739V255.455H526V252.429H525.83C525.479 253.111 525.01 253.712 524.423 254.233C523.836 254.744 523.131 255.147 522.307 255.44C521.483 255.724 520.531 255.867 519.452 255.867ZM521.185 251.69C522.075 251.69 522.861 251.515 523.543 251.165C524.224 250.805 524.759 250.322 525.148 249.716C525.536 249.11 525.73 248.423 525.73 247.656V245.341C525.541 245.464 525.28 245.578 524.949 245.682C524.627 245.777 524.262 245.867 523.855 245.952C523.448 246.028 523.041 246.099 522.633 246.165C522.226 246.222 521.857 246.274 521.526 246.321C520.815 246.425 520.195 246.591 519.665 246.818C519.134 247.045 518.723 247.353 518.429 247.742C518.135 248.12 517.989 248.594 517.989 249.162C517.989 249.986 518.287 250.616 518.883 251.051C519.49 251.477 520.257 251.69 521.185 251.69ZM547.158 233.636V238.182H534.019V233.636H547.158ZM537.002 228.409H543.053V248.75C543.053 249.309 543.138 249.744 543.309 250.057C543.479 250.36 543.716 250.573 544.019 250.696C544.332 250.819 544.691 250.881 545.099 250.881C545.383 250.881 545.667 250.857 545.951 250.81C546.235 250.753 546.453 250.71 546.604 250.682L547.556 255.185C547.253 255.279 546.827 255.388 546.278 255.511C545.728 255.644 545.061 255.724 544.275 255.753C542.816 255.81 541.538 255.616 540.44 255.17C539.351 254.725 538.503 254.034 537.897 253.097C537.291 252.159 536.993 250.975 537.002 249.545V228.409ZM559.844 255.881C557.637 255.881 555.729 255.412 554.119 254.474C552.519 253.528 551.283 252.211 550.412 250.526C549.541 248.831 549.105 246.866 549.105 244.631C549.105 242.377 549.541 240.407 550.412 238.722C551.283 237.027 552.519 235.71 554.119 234.773C555.729 233.826 557.637 233.352 559.844 233.352C562.05 233.352 563.954 233.826 565.554 234.773C567.164 235.71 568.404 237.027 569.275 238.722C570.147 240.407 570.582 242.377 570.582 244.631C570.582 246.866 570.147 248.831 569.275 250.526C568.404 252.211 567.164 253.528 565.554 254.474C563.954 255.412 562.05 255.881 559.844 255.881ZM559.872 251.193C560.876 251.193 561.714 250.909 562.386 250.341C563.059 249.763 563.565 248.977 563.906 247.983C564.257 246.989 564.432 245.857 564.432 244.588C564.432 243.319 564.257 242.188 563.906 241.193C563.565 240.199 563.059 239.413 562.386 238.835C561.714 238.258 560.876 237.969 559.872 237.969C558.859 237.969 558.007 238.258 557.315 238.835C556.633 239.413 556.117 240.199 555.767 241.193C555.426 242.188 555.256 243.319 555.256 244.588C555.256 245.857 555.426 246.989 555.767 247.983C556.117 248.977 556.633 249.763 557.315 250.341C558.007 250.909 558.859 251.193 559.872 251.193Z" fill="white"/>
<path d="M934.5 122.901C937.644 112.284 947.398 105 958.471 105H1006.8L982.19 190.887C979.118 201.61 969.312 209 958.158 209H909L934.5 122.901Z" fill="#D9D9D9"/>
<circle cx="958" cy="189" r="32" fill="#FF6B6B"/>
<circle cx="970.5" cy="204.5" r="27.5" fill="#FF8D8D"/>
<circle cx="979.5" cy="220.5" r="27.5" fill="#FFB0B0"/>
<circle cx="990.5" cy="236.5" r="27.5" fill="#FFCDCD"/>
<path d="M1034.74 106.984C1037.86 96.3252 1047.63 89 1058.74 89H1107L1063.19 241.887C1060.12 252.61 1050.31 260 1039.16 260H990L1034.74 106.984Z" fill="#D3D3D3"/>
<path d="M1117.5 106.901C1120.64 96.2837 1130.4 89 1141.47 89H1189.8L1165.19 174.887C1162.12 185.61 1152.31 193 1141.16 193H1092L1117.5 106.901Z" fill="#D3D3D3"/>
<path d="M1074.62 220.401C1077.76 209.784 1087.51 202.5 1098.59 202.5L1189.92 202.5L1173 263L1062 263L1074.62 220.401Z" fill="#D3D3D3"/>
<path d="M1221.24 244.887C1218.17 255.61 1208.36 263 1197.21 263H1148.05L1192.79 109.983C1195.91 99.325 1205.68 92 1216.79 92H1265.05L1221.24 244.887Z" fill="#D3D3D3"/>
<mask id="mask0_187_1175" style="mask-type:alpha" maskUnits="userSpaceOnUse" x="1092" y="89" width="98" height="104">
<path d="M1117.5 106.901C1120.64 96.2837 1130.4 89 1141.47 89H1189.8L1165.19 174.887C1162.12 185.61 1152.31 193 1141.16 193H1092L1117.5 106.901Z" fill="#D9D9D9"/>
</mask>
<g mask="url(#mask0_187_1175)">
<circle cx="1143.5" cy="168.5" r="32.5" transform="rotate(180 1143.5 168.5)" fill="#FFCDCD"/>
<circle cx="1146.5" cy="171.5" r="27.5" transform="rotate(180 1146.5 171.5)" fill="#FFB0B0"/>
<circle cx="1148.5" cy="173.5" r="22.5" transform="rotate(180 1148.5 173.5)" fill="#FF8D8D"/>
<circle cx="1151.5" cy="176.5" r="17.5" transform="rotate(180 1151.5 176.5)" fill="#FF6B6B"/>
</g>
<path d="M539.371 457.984C542.488 447.325 552.262 440 563.367 440H592.374L562.647 543.741C559.574 554.464 549.769 561.854 538.614 561.854H509L539.371 457.984Z" fill="#7CCFFF"/>
<path d="M598.332 457.901C601.476 447.284 611.23 440 622.303 440H651.378L635.332 495.997C632.259 506.72 622.454 514.11 611.299 514.11H581.685L598.332 457.901Z" fill="#7CCFFF"/>
<path d="M676.218 545.783C673.18 556.558 663.351 564 652.156 564H622.626L622.628 563.992H561.307L568.774 538.78C571.919 528.164 581.672 520.88 592.745 520.88H635.03L653.053 458.227C656.134 447.516 665.933 440.138 677.078 440.138H706L676.218 545.783Z" fill="#7CCFFF"/>
<mask id="mask1_187_1175" style="mask-type:alpha" maskUnits="userSpaceOnUse" x="581" y="440" width="71" height="75">
<path d="M598.332 457.901C601.476 447.284 611.23 440 622.303 440H651.378L635.332 495.997C632.259 506.72 622.454 514.11 611.299 514.11H581.685L598.332 457.901Z" fill="#FEFD97"/>
</mask>
<g mask="url(#mask1_187_1175)">
<circle cx="618.384" cy="496.652" r="23.1594" transform="rotate(180 618.384 496.652)" fill="#FFCDCD"/>
<circle cx="620.522" cy="498.789" r="19.5965" transform="rotate(180 620.522 498.789)" fill="#FFB0B0"/>
<circle cx="621.947" cy="500.215" r="16.0335" transform="rotate(180 621.947 500.215)" fill="#FF8D8D"/>
<circle cx="624.084" cy="502.352" r="12.4705" transform="rotate(180 624.084 502.352)" fill="#FF6B6B"/>
</g>
</svg>
