<svg width="163" height="29" viewBox="0 0 163 29" fill="none" xmlns="http://www.w3.org/2000/svg">
<path d="M8.88031 23C8.32031 23 7.86031 22.83 7.50031 22.49C7.14031 22.13 6.96031 21.69 6.96031 21.17V3.77H10.8603V21.17C10.8603 21.69 10.6703 22.13 10.2903 22.49C9.93031 22.83 9.46031 23 8.88031 23ZM2.25031 5.45C1.73031 5.45 1.29031 5.29 0.93031 4.97C0.590309 4.65 0.420309 4.23 0.420309 3.71C0.420309 3.19 0.590309 2.78 0.93031 2.48C1.29031 2.16 1.73031 2 2.25031 2H15.5703C16.0903 2 16.5203 2.16 16.8603 2.48C17.2203 2.8 17.4003 3.22 17.4003 3.74C17.4003 4.26 17.2203 4.68 16.8603 5C16.5203 5.3 16.0903 5.45 15.5703 5.45H2.25031ZM21.1625 23C20.6425 23 20.2125 22.83 19.8725 22.49C19.5325 22.13 19.3625 21.69 19.3625 21.17V8.78C19.3625 8.26 19.5325 7.83 19.8725 7.49C20.2125 7.13 20.6425 6.95 21.1625 6.95C21.6825 6.95 22.1125 7.13 22.4525 7.49C22.7925 7.83 22.9625 8.26 22.9625 8.78V11.6L22.7525 9.59C22.9725 9.11 23.2525 8.69 23.5925 8.33C23.9525 7.95 24.3525 7.64 24.7925 7.4C25.2325 7.14 25.7025 6.95 26.2025 6.83C26.7025 6.71 27.2025 6.65 27.7025 6.65C28.3025 6.65 28.8025 6.82 29.2025 7.16C29.6225 7.5 29.8325 7.9 29.8325 8.36C29.8325 9.02 29.6625 9.5 29.3225 9.8C28.9825 10.08 28.6125 10.22 28.2125 10.22C27.8325 10.22 27.4825 10.15 27.1625 10.01C26.8625 9.87 26.5125 9.8 26.1125 9.8C25.7525 9.8 25.3825 9.89 25.0025 10.07C24.6425 10.23 24.3025 10.49 23.9825 10.85C23.6825 11.21 23.4325 11.66 23.2325 12.2C23.0525 12.72 22.9625 13.34 22.9625 14.06V21.17C22.9625 21.69 22.7925 22.13 22.4525 22.49C22.1125 22.83 21.6825 23 21.1625 23ZM46.0587 6.65C46.5787 6.65 47.0087 6.82 47.3487 7.16C47.6887 7.5 47.8587 7.94 47.8587 8.48V21.17C47.8587 21.69 47.6887 22.13 47.3487 22.49C47.0087 22.83 46.5787 23 46.0587 23C45.5387 23 45.1087 22.83 44.7687 22.49C44.4287 22.13 44.2587 21.69 44.2587 21.17V19.7L44.9187 19.97C44.9187 20.23 44.7787 20.55 44.4987 20.93C44.2187 21.29 43.8387 21.65 43.3587 22.01C42.8787 22.37 42.3087 22.68 41.6487 22.94C41.0087 23.18 40.3087 23.3 39.5487 23.3C38.1687 23.3 36.9187 22.95 35.7987 22.25C34.6787 21.53 33.7887 20.55 33.1287 19.31C32.4887 18.05 32.1687 16.61 32.1687 14.99C32.1687 13.35 32.4887 11.91 33.1287 10.67C33.7887 9.41 34.6687 8.43 35.7687 7.73C36.8687 7.01 38.0887 6.65 39.4287 6.65C40.2887 6.65 41.0787 6.78 41.7987 7.04C42.5187 7.3 43.1387 7.63 43.6587 8.03C44.1987 8.43 44.6087 8.84 44.8887 9.26C45.1887 9.66 45.3387 10 45.3387 10.28L44.2587 10.67V8.48C44.2587 7.96 44.4287 7.53 44.7687 7.19C45.1087 6.83 45.5387 6.65 46.0587 6.65ZM39.9987 20C40.8787 20 41.6487 19.78 42.3087 19.34C42.9687 18.9 43.4787 18.3 43.8387 17.54C44.2187 16.78 44.4087 15.93 44.4087 14.99C44.4087 14.03 44.2187 13.17 43.8387 12.41C43.4787 11.65 42.9687 11.05 42.3087 10.61C41.6487 10.17 40.8787 9.95 39.9987 9.95C39.1387 9.95 38.3787 10.17 37.7187 10.61C37.0587 11.05 36.5387 11.65 36.1587 12.41C35.7987 13.17 35.6187 14.03 35.6187 14.99C35.6187 15.93 35.7987 16.78 36.1587 17.54C36.5387 18.3 37.0587 18.9 37.7187 19.34C38.3787 19.78 39.1387 20 39.9987 20ZM53.0251 6.95C53.4051 6.95 53.7551 7.05 54.0751 7.25C54.3951 7.43 54.6351 7.71 54.7951 8.09L59.2051 18.17L58.5451 18.47L63.0451 8.12C63.3851 7.32 63.9151 6.94 64.6351 6.98C65.1351 6.98 65.5351 7.14 65.8351 7.46C66.1551 7.76 66.3151 8.14 66.3151 8.6C66.3151 8.74 66.2851 8.89 66.2251 9.05C66.1851 9.21 66.1351 9.36 66.0751 9.5L60.4651 21.86C60.1451 22.58 59.6351 22.96 58.9351 23C58.5551 23.06 58.1851 22.99 57.8251 22.79C57.4851 22.59 57.2251 22.28 57.0451 21.86L51.4651 9.5C51.4251 9.4 51.3751 9.27 51.3151 9.11C51.2751 8.95 51.2551 8.76 51.2551 8.54C51.2551 8.18 51.4151 7.83 51.7351 7.49C52.0551 7.13 52.4851 6.95 53.0251 6.95ZM77.4643 23.3C75.7643 23.3 74.2843 22.95 73.0243 22.25C71.7843 21.53 70.8243 20.56 70.1443 19.34C69.4843 18.12 69.1543 16.74 69.1543 15.2C69.1543 13.4 69.5143 11.87 70.2343 10.61C70.9743 9.33 71.9343 8.35 73.1143 7.67C74.2943 6.99 75.5443 6.65 76.8643 6.65C77.8843 6.65 78.8443 6.86 79.7443 7.28C80.6643 7.7 81.4743 8.28 82.1743 9.02C82.8743 9.74 83.4243 10.58 83.8243 11.54C84.2443 12.5 84.4543 13.52 84.4543 14.6C84.4343 15.08 84.2443 15.47 83.8843 15.77C83.5243 16.07 83.1043 16.22 82.6243 16.22H71.1643L70.2643 13.22H81.2743L80.6143 13.82V13.01C80.5743 12.43 80.3643 11.91 79.9843 11.45C79.6243 10.99 79.1643 10.63 78.6043 10.37C78.0643 10.09 77.4843 9.95 76.8643 9.95C76.2643 9.95 75.7043 10.03 75.1843 10.19C74.6643 10.35 74.2143 10.62 73.8343 11C73.4543 11.38 73.1543 11.89 72.9343 12.53C72.7143 13.17 72.6043 13.98 72.6043 14.96C72.6043 16.04 72.8243 16.96 73.2643 17.72C73.7243 18.46 74.3043 19.03 75.0043 19.43C75.7243 19.81 76.4843 20 77.2843 20C78.0243 20 78.6143 19.94 79.0543 19.82C79.4943 19.7 79.8443 19.56 80.1043 19.4C80.3843 19.22 80.6343 19.07 80.8543 18.95C81.2143 18.77 81.5543 18.68 81.8743 18.68C82.3143 18.68 82.6743 18.83 82.9543 19.13C83.2543 19.43 83.4043 19.78 83.4043 20.18C83.4043 20.72 83.1243 21.21 82.5643 21.65C82.0443 22.09 81.3143 22.48 80.3743 22.82C79.4343 23.14 78.4643 23.3 77.4643 23.3ZM92.3996 21.17C92.3996 21.69 92.2196 22.13 91.8596 22.49C91.5196 22.83 91.0896 23 90.5696 23C90.0696 23 89.6496 22.83 89.3096 22.49C88.9696 22.13 88.7996 21.69 88.7996 21.17V2.63C88.7996 2.11 88.9696 1.68 89.3096 1.34C89.6696 0.979999 90.1096 0.8 90.6296 0.8C91.1496 0.8 91.5696 0.979999 91.8896 1.34C92.2296 1.68 92.3996 2.11 92.3996 2.63V21.17ZM114.804 6.71L108.324 21.95C108.184 22.33 107.964 22.63 107.664 22.85C107.384 23.05 107.074 23.15 106.734 23.15C106.194 23.15 105.794 23 105.534 22.7C105.274 22.4 105.144 22.03 105.144 21.59C105.144 21.41 105.174 21.22 105.234 21.02L112.704 3.08C112.864 2.68 113.104 2.37 113.424 2.15C113.764 1.93 114.124 1.84 114.504 1.88C114.864 1.88 115.194 1.99 115.494 2.21C115.814 2.41 116.044 2.7 116.184 3.08L123.564 20.66C123.664 20.92 123.714 21.16 123.714 21.38C123.714 21.92 123.534 22.35 123.174 22.67C122.834 22.99 122.454 23.15 122.034 23.15C121.674 23.15 121.344 23.04 121.044 22.82C120.764 22.6 120.544 22.3 120.384 21.92L113.934 6.89L114.804 6.71ZM109.254 18.29L110.904 14.84H119.004L119.574 18.29H109.254ZM135.164 6.65C136.564 6.65 137.814 7.01 138.914 7.73C140.034 8.43 140.914 9.4 141.554 10.64C142.214 11.88 142.544 13.32 142.544 14.96C142.544 16.6 142.214 18.05 141.554 19.31C140.914 20.55 140.044 21.53 138.944 22.25C137.864 22.95 136.644 23.3 135.284 23.3C134.484 23.3 133.734 23.17 133.034 22.91C132.334 22.65 131.714 22.32 131.174 21.92C130.654 21.52 130.244 21.12 129.944 20.72C129.664 20.3 129.524 19.95 129.524 19.67L130.454 19.28V27.17C130.454 27.69 130.284 28.12 129.944 28.46C129.604 28.82 129.174 29 128.654 29C128.134 29 127.704 28.83 127.364 28.49C127.024 28.15 126.854 27.71 126.854 27.17V8.78C126.854 8.26 127.024 7.83 127.364 7.49C127.704 7.13 128.134 6.95 128.654 6.95C129.174 6.95 129.604 7.13 129.944 7.49C130.284 7.83 130.454 8.26 130.454 8.78V10.25L129.944 9.98C129.944 9.72 130.084 9.41 130.364 9.05C130.644 8.67 131.024 8.3 131.504 7.94C131.984 7.56 132.534 7.25 133.154 7.01C133.794 6.77 134.464 6.65 135.164 6.65ZM134.714 9.95C133.834 9.95 133.064 10.17 132.404 10.61C131.744 11.05 131.224 11.65 130.844 12.41C130.484 13.15 130.304 14 130.304 14.96C130.304 15.9 130.484 16.76 130.844 17.54C131.224 18.3 131.744 18.9 132.404 19.34C133.064 19.78 133.834 20 134.714 20C135.594 20 136.354 19.78 136.994 19.34C137.654 18.9 138.164 18.3 138.524 17.54C138.904 16.76 139.094 15.9 139.094 14.96C139.094 14 138.904 13.15 138.524 12.41C138.164 11.65 137.654 11.05 136.994 10.61C136.354 10.17 135.594 9.95 134.714 9.95ZM154.902 6.65C156.302 6.65 157.552 7.01 158.652 7.73C159.772 8.43 160.652 9.4 161.292 10.64C161.952 11.88 162.282 13.32 162.282 14.96C162.282 16.6 161.952 18.05 161.292 19.31C160.652 20.55 159.782 21.53 158.682 22.25C157.602 22.95 156.382 23.3 155.022 23.3C154.222 23.3 153.472 23.17 152.772 22.91C152.072 22.65 151.452 22.32 150.912 21.92C150.392 21.52 149.982 21.12 149.682 20.72C149.402 20.3 149.262 19.95 149.262 19.67L150.192 19.28V27.17C150.192 27.69 150.022 28.12 149.682 28.46C149.342 28.82 148.912 29 148.392 29C147.872 29 147.442 28.83 147.102 28.49C146.762 28.15 146.592 27.71 146.592 27.17V8.78C146.592 8.26 146.762 7.83 147.102 7.49C147.442 7.13 147.872 6.95 148.392 6.95C148.912 6.95 149.342 7.13 149.682 7.49C150.022 7.83 150.192 8.26 150.192 8.78V10.25L149.682 9.98C149.682 9.72 149.822 9.41 150.102 9.05C150.382 8.67 150.762 8.3 151.242 7.94C151.722 7.56 152.272 7.25 152.892 7.01C153.532 6.77 154.202 6.65 154.902 6.65ZM154.452 9.95C153.572 9.95 152.802 10.17 152.142 10.61C151.482 11.05 150.962 11.65 150.582 12.41C150.222 13.15 150.042 14 150.042 14.96C150.042 15.9 150.222 16.76 150.582 17.54C150.962 18.3 151.482 18.9 152.142 19.34C152.802 19.78 153.572 20 154.452 20C155.332 20 156.092 19.78 156.732 19.34C157.392 18.9 157.902 18.3 158.262 17.54C158.642 16.76 158.832 15.9 158.832 14.96C158.832 14 158.642 13.15 158.262 12.41C157.902 11.65 157.392 11.05 156.732 10.61C156.092 10.17 155.332 9.95 154.452 9.95Z" fill="url(#paint0_linear_132_536)"/>
<defs>
<linearGradient id="paint0_linear_132_536" x1="-29" y1="24.5" x2="192" y2="24.5" gradientUnits="userSpaceOnUse">
<stop stop-color="#FF8800"/>
<stop offset="1" stop-color="#83C1EE"/>
</linearGradient>
</defs>
</svg>
