<svg width="198" height="29" viewBox="0 0 198 29" fill="none" xmlns="http://www.w3.org/2000/svg">
<path d="M25.7038 1.91C26.1638 1.91 26.6038 2.09 27.0238 2.45C27.4438 2.79 27.6538 3.26 27.6538 3.86C27.6538 4.04 27.6238 4.24 27.5638 4.46L21.6538 21.86C21.5338 22.22 21.3138 22.5 20.9938 22.7C20.6938 22.88 20.3738 22.98 20.0338 23C19.6938 23 19.3538 22.9 19.0138 22.7C18.6938 22.5 18.4438 22.21 18.2638 21.83L13.8238 11.75L14.0938 11.93L9.71375 21.83C9.53375 22.21 9.27375 22.5 8.93375 22.7C8.61375 22.9 8.28375 23 7.94375 23C7.62375 22.98 7.30375 22.88 6.98375 22.7C6.66375 22.5 6.44375 22.22 6.32375 21.86L0.41375 4.46C0.35375 4.24 0.32375 4.04 0.32375 3.86C0.32375 3.26 0.53375 2.79 0.95375 2.45C1.39375 2.09 1.84375 1.91 2.30375 1.91C2.68375 1.91 3.03375 2.01 3.35375 2.21C3.69375 2.41 3.92375 2.7 4.04375 3.08L8.81375 17.54L8.15375 17.51L12.4138 7.28C12.5738 6.92 12.8038 6.64 13.1038 6.44C13.4038 6.22 13.7438 6.12 14.1238 6.14C14.5038 6.12 14.8438 6.22 15.1438 6.44C15.4438 6.64 15.6638 6.92 15.8038 7.28L19.7038 17.06L19.2238 17.36L23.9338 3.08C24.0538 2.7 24.2838 2.41 24.6238 2.21C24.9638 2.01 25.3238 1.91 25.7038 1.91ZM38.1151 23.3C36.4151 23.3 34.9351 22.95 33.6751 22.25C32.4351 21.53 31.4751 20.56 30.7951 19.34C30.1351 18.12 29.8051 16.74 29.8051 15.2C29.8051 13.4 30.1651 11.87 30.8851 10.61C31.6251 9.33 32.5851 8.35 33.7651 7.67C34.9451 6.99 36.1951 6.65 37.5151 6.65C38.5351 6.65 39.4951 6.86 40.3951 7.28C41.3151 7.7 42.1251 8.28 42.8251 9.02C43.5251 9.74 44.0751 10.58 44.4751 11.54C44.8951 12.5 45.1051 13.52 45.1051 14.6C45.0851 15.08 44.8951 15.47 44.5351 15.77C44.1751 16.07 43.7551 16.22 43.2751 16.22H31.8151L30.9151 13.22H41.9251L41.2651 13.82V13.01C41.2251 12.43 41.0151 11.91 40.6351 11.45C40.2751 10.99 39.8151 10.63 39.2551 10.37C38.7151 10.09 38.1351 9.95 37.5151 9.95C36.9151 9.95 36.3551 10.03 35.8351 10.19C35.3151 10.35 34.8651 10.62 34.4851 11C34.1051 11.38 33.8051 11.89 33.5851 12.53C33.3651 13.17 33.2551 13.98 33.2551 14.96C33.2551 16.04 33.4751 16.96 33.9151 17.72C34.3751 18.46 34.9551 19.03 35.6551 19.43C36.3751 19.81 37.1351 20 37.9351 20C38.6751 20 39.2651 19.94 39.7051 19.82C40.1451 19.7 40.4951 19.56 40.7551 19.4C41.0351 19.22 41.2851 19.07 41.5051 18.95C41.8651 18.77 42.2051 18.68 42.5251 18.68C42.9651 18.68 43.3251 18.83 43.6051 19.13C43.9051 19.43 44.0551 19.78 44.0551 20.18C44.0551 20.72 43.7751 21.21 43.2151 21.65C42.6951 22.09 41.9651 22.48 41.0251 22.82C40.0851 23.14 39.1151 23.3 38.1151 23.3ZM62.4076 6.65C62.9276 6.65 63.3576 6.82 63.6976 7.16C64.0376 7.5 64.2076 7.94 64.2076 8.48V21.17C64.2076 21.69 64.0376 22.13 63.6976 22.49C63.3576 22.83 62.9276 23 62.4076 23C61.8876 23 61.4576 22.83 61.1176 22.49C60.7776 22.13 60.6076 21.69 60.6076 21.17V19.7L61.2676 19.97C61.2676 20.23 61.1276 20.55 60.8476 20.93C60.5676 21.29 60.1876 21.65 59.7076 22.01C59.2276 22.37 58.6576 22.68 57.9976 22.94C57.3576 23.18 56.6576 23.3 55.8976 23.3C54.5176 23.3 53.2676 22.95 52.1476 22.25C51.0276 21.53 50.1376 20.55 49.4776 19.31C48.8376 18.05 48.5176 16.61 48.5176 14.99C48.5176 13.35 48.8376 11.91 49.4776 10.67C50.1376 9.41 51.0176 8.43 52.1176 7.73C53.2176 7.01 54.4376 6.65 55.7776 6.65C56.6376 6.65 57.4276 6.78 58.1476 7.04C58.8676 7.3 59.4876 7.63 60.0076 8.03C60.5476 8.43 60.9576 8.84 61.2376 9.26C61.5376 9.66 61.6876 10 61.6876 10.28L60.6076 10.67V8.48C60.6076 7.96 60.7776 7.53 61.1176 7.19C61.4576 6.83 61.8876 6.65 62.4076 6.65ZM56.3476 20C57.2276 20 57.9976 19.78 58.6576 19.34C59.3176 18.9 59.8276 18.3 60.1876 17.54C60.5676 16.78 60.7576 15.93 60.7576 14.99C60.7576 14.03 60.5676 13.17 60.1876 12.41C59.8276 11.65 59.3176 11.05 58.6576 10.61C57.9976 10.17 57.2276 9.95 56.3476 9.95C55.4876 9.95 54.7276 10.17 54.0676 10.61C53.4076 11.05 52.8876 11.65 52.5076 12.41C52.1476 13.17 51.9676 14.03 51.9676 14.99C51.9676 15.93 52.1476 16.78 52.5076 17.54C52.8876 18.3 53.4076 18.9 54.0676 19.34C54.7276 19.78 55.4876 20 56.3476 20ZM69.1855 7.25H76.2955C76.7755 7.25 77.1755 7.41 77.4955 7.73C77.8155 8.05 77.9755 8.45 77.9755 8.93C77.9755 9.39 77.8155 9.78 77.4955 10.1C77.1755 10.4 76.7755 10.55 76.2955 10.55H69.1855C68.7055 10.55 68.3055 10.39 67.9855 10.07C67.6655 9.75 67.5055 9.35 67.5055 8.87C67.5055 8.41 67.6655 8.03 67.9855 7.73C68.3055 7.41 68.7055 7.25 69.1855 7.25ZM72.3955 3.5C72.9155 3.5 73.3355 3.68 73.6555 4.04C73.9955 4.38 74.1655 4.81 74.1655 5.33V18.68C74.1655 18.96 74.2155 19.19 74.3155 19.37C74.4355 19.55 74.5855 19.68 74.7655 19.76C74.9655 19.84 75.1755 19.88 75.3955 19.88C75.6355 19.88 75.8555 19.84 76.0555 19.76C76.2555 19.66 76.4855 19.61 76.7455 19.61C77.0255 19.61 77.2755 19.74 77.4955 20C77.7355 20.26 77.8555 20.62 77.8555 21.08C77.8555 21.64 77.5455 22.1 76.9255 22.46C76.3255 22.82 75.6755 23 74.9755 23C74.5555 23 74.0855 22.97 73.5655 22.91C73.0655 22.83 72.5855 22.66 72.1255 22.4C71.6855 22.12 71.3155 21.7 71.0155 21.14C70.7155 20.58 70.5655 19.81 70.5655 18.83V5.33C70.5655 4.81 70.7355 4.38 71.0755 4.04C71.4355 3.68 71.8755 3.5 72.3955 3.5ZM90.6109 6.65C92.0509 6.65 93.1409 6.96 93.8809 7.58C94.6409 8.2 95.1609 9.03 95.4409 10.07C95.7209 11.09 95.8609 12.23 95.8609 13.49V21.17C95.8609 21.69 95.6909 22.13 95.3509 22.49C95.0109 22.83 94.5809 23 94.0609 23C93.5409 23 93.1109 22.83 92.7709 22.49C92.4309 22.13 92.2609 21.69 92.2609 21.17V13.49C92.2609 12.83 92.1809 12.24 92.0209 11.72C91.8609 11.18 91.5709 10.75 91.1509 10.43C90.7309 10.11 90.1309 9.95 89.3509 9.95C88.5909 9.95 87.9409 10.11 87.4009 10.43C86.8609 10.75 86.4509 11.18 86.1709 11.72C85.9109 12.24 85.7809 12.83 85.7809 13.49V21.17C85.7809 21.69 85.6109 22.13 85.2709 22.49C84.9309 22.83 84.5009 23 83.9809 23C83.4609 23 83.0309 22.83 82.6909 22.49C82.3509 22.13 82.1809 21.69 82.1809 21.17V2.63C82.1809 2.11 82.3509 1.68 82.6909 1.34C83.0309 0.979999 83.4609 0.8 83.9809 0.8C84.5009 0.8 84.9309 0.979999 85.2709 1.34C85.6109 1.68 85.7809 2.11 85.7809 2.63V10.07L85.3309 9.98C85.5109 9.64 85.7609 9.28 86.0809 8.9C86.4009 8.5 86.7909 8.13 87.2509 7.79C87.7109 7.45 88.2209 7.18 88.7809 6.98C89.3409 6.76 89.9509 6.65 90.6109 6.65ZM108.219 23.3C106.519 23.3 105.039 22.95 103.779 22.25C102.539 21.53 101.579 20.56 100.899 19.34C100.239 18.12 99.909 16.74 99.909 15.2C99.909 13.4 100.269 11.87 100.989 10.61C101.729 9.33 102.689 8.35 103.869 7.67C105.049 6.99 106.299 6.65 107.619 6.65C108.639 6.65 109.599 6.86 110.499 7.28C111.419 7.7 112.229 8.28 112.929 9.02C113.629 9.74 114.179 10.58 114.579 11.54C114.999 12.5 115.209 13.52 115.209 14.6C115.189 15.08 114.999 15.47 114.639 15.77C114.279 16.07 113.859 16.22 113.379 16.22H101.919L101.019 13.22H112.029L111.369 13.82V13.01C111.329 12.43 111.119 11.91 110.739 11.45C110.379 10.99 109.919 10.63 109.359 10.37C108.819 10.09 108.239 9.95 107.619 9.95C107.019 9.95 106.459 10.03 105.939 10.19C105.419 10.35 104.969 10.62 104.589 11C104.209 11.38 103.909 11.89 103.689 12.53C103.469 13.17 103.359 13.98 103.359 14.96C103.359 16.04 103.579 16.96 104.019 17.72C104.479 18.46 105.059 19.03 105.759 19.43C106.479 19.81 107.239 20 108.039 20C108.779 20 109.369 19.94 109.809 19.82C110.249 19.7 110.599 19.56 110.859 19.4C111.139 19.22 111.389 19.07 111.609 18.95C111.969 18.77 112.309 18.68 112.629 18.68C113.069 18.68 113.429 18.83 113.709 19.13C114.009 19.43 114.159 19.78 114.159 20.18C114.159 20.72 113.879 21.21 113.319 21.65C112.799 22.09 112.069 22.48 111.129 22.82C110.189 23.14 109.219 23.3 108.219 23.3ZM121.054 23C120.534 23 120.104 22.83 119.764 22.49C119.424 22.13 119.254 21.69 119.254 21.17V8.78C119.254 8.26 119.424 7.83 119.764 7.49C120.104 7.13 120.534 6.95 121.054 6.95C121.574 6.95 122.004 7.13 122.344 7.49C122.684 7.83 122.854 8.26 122.854 8.78V11.6L122.644 9.59C122.864 9.11 123.144 8.69 123.484 8.33C123.844 7.95 124.244 7.64 124.684 7.4C125.124 7.14 125.594 6.95 126.094 6.83C126.594 6.71 127.094 6.65 127.594 6.65C128.194 6.65 128.694 6.82 129.094 7.16C129.514 7.5 129.724 7.9 129.724 8.36C129.724 9.02 129.554 9.5 129.214 9.8C128.874 10.08 128.504 10.22 128.104 10.22C127.724 10.22 127.374 10.15 127.054 10.01C126.754 9.87 126.404 9.8 126.004 9.8C125.644 9.8 125.274 9.89 124.894 10.07C124.534 10.23 124.194 10.49 123.874 10.85C123.574 11.21 123.324 11.66 123.124 12.2C122.944 12.72 122.854 13.34 122.854 14.06V21.17C122.854 21.69 122.684 22.13 122.344 22.49C122.004 22.83 121.574 23 121.054 23ZM150.48 6.71L144 21.95C143.86 22.33 143.64 22.63 143.34 22.85C143.06 23.05 142.75 23.15 142.41 23.15C141.87 23.15 141.47 23 141.21 22.7C140.95 22.4 140.82 22.03 140.82 21.59C140.82 21.41 140.85 21.22 140.91 21.02L148.38 3.08C148.54 2.68 148.78 2.37 149.1 2.15C149.44 1.93 149.8 1.84 150.18 1.88C150.54 1.88 150.87 1.99 151.17 2.21C151.49 2.41 151.72 2.7 151.86 3.08L159.24 20.66C159.34 20.92 159.39 21.16 159.39 21.38C159.39 21.92 159.21 22.35 158.85 22.67C158.51 22.99 158.13 23.15 157.71 23.15C157.35 23.15 157.02 23.04 156.72 22.82C156.44 22.6 156.22 22.3 156.06 21.92L149.61 6.89L150.48 6.71ZM144.93 18.29L146.58 14.84H154.68L155.25 18.29H144.93ZM170.84 6.65C172.24 6.65 173.49 7.01 174.59 7.73C175.71 8.43 176.59 9.4 177.23 10.64C177.89 11.88 178.22 13.32 178.22 14.96C178.22 16.6 177.89 18.05 177.23 19.31C176.59 20.55 175.72 21.53 174.62 22.25C173.54 22.95 172.32 23.3 170.96 23.3C170.16 23.3 169.41 23.17 168.71 22.91C168.01 22.65 167.39 22.32 166.85 21.92C166.33 21.52 165.92 21.12 165.62 20.72C165.34 20.3 165.2 19.95 165.2 19.67L166.13 19.28V27.17C166.13 27.69 165.96 28.12 165.62 28.46C165.28 28.82 164.85 29 164.33 29C163.81 29 163.38 28.83 163.04 28.49C162.7 28.15 162.53 27.71 162.53 27.17V8.78C162.53 8.26 162.7 7.83 163.04 7.49C163.38 7.13 163.81 6.95 164.33 6.95C164.85 6.95 165.28 7.13 165.62 7.49C165.96 7.83 166.13 8.26 166.13 8.78V10.25L165.62 9.98C165.62 9.72 165.76 9.41 166.04 9.05C166.32 8.67 166.7 8.3 167.18 7.94C167.66 7.56 168.21 7.25 168.83 7.01C169.47 6.77 170.14 6.65 170.84 6.65ZM170.39 9.95C169.51 9.95 168.74 10.17 168.08 10.61C167.42 11.05 166.9 11.65 166.52 12.41C166.16 13.15 165.98 14 165.98 14.96C165.98 15.9 166.16 16.76 166.52 17.54C166.9 18.3 167.42 18.9 168.08 19.34C168.74 19.78 169.51 20 170.39 20C171.27 20 172.03 19.78 172.67 19.34C173.33 18.9 173.84 18.3 174.2 17.54C174.58 16.76 174.77 15.9 174.77 14.96C174.77 14 174.58 13.15 174.2 12.41C173.84 11.65 173.33 11.05 172.67 10.61C172.03 10.17 171.27 9.95 170.39 9.95ZM190.578 6.65C191.978 6.65 193.228 7.01 194.328 7.73C195.448 8.43 196.328 9.4 196.968 10.64C197.628 11.88 197.958 13.32 197.958 14.96C197.958 16.6 197.628 18.05 196.968 19.31C196.328 20.55 195.458 21.53 194.358 22.25C193.278 22.95 192.058 23.3 190.698 23.3C189.898 23.3 189.148 23.17 188.448 22.91C187.748 22.65 187.128 22.32 186.588 21.92C186.068 21.52 185.658 21.12 185.358 20.72C185.078 20.3 184.938 19.95 184.938 19.67L185.868 19.28V27.17C185.868 27.69 185.698 28.12 185.358 28.46C185.018 28.82 184.588 29 184.068 29C183.548 29 183.118 28.83 182.778 28.49C182.438 28.15 182.268 27.71 182.268 27.17V8.78C182.268 8.26 182.438 7.83 182.778 7.49C183.118 7.13 183.548 6.95 184.068 6.95C184.588 6.95 185.018 7.13 185.358 7.49C185.698 7.83 185.868 8.26 185.868 8.78V10.25L185.358 9.98C185.358 9.72 185.498 9.41 185.778 9.05C186.058 8.67 186.438 8.3 186.918 7.94C187.398 7.56 187.948 7.25 188.568 7.01C189.208 6.77 189.878 6.65 190.578 6.65ZM190.128 9.95C189.248 9.95 188.478 10.17 187.818 10.61C187.158 11.05 186.638 11.65 186.258 12.41C185.898 13.15 185.718 14 185.718 14.96C185.718 15.9 185.898 16.76 186.258 17.54C186.638 18.3 187.158 18.9 187.818 19.34C188.478 19.78 189.248 20 190.128 20C191.008 20 191.768 19.78 192.408 19.34C193.068 18.9 193.578 18.3 193.938 17.54C194.318 16.76 194.508 15.9 194.508 14.96C194.508 14 194.318 13.15 193.938 12.41C193.578 11.65 193.068 11.05 192.408 10.61C191.768 10.17 191.008 9.95 190.128 9.95Z" fill="url(#paint0_linear_130_467)"/>
<defs>
<linearGradient id="paint0_linear_130_467" x1="-11" y1="24.5" x2="210" y2="24.5" gradientUnits="userSpaceOnUse">
<stop stop-color="#7CCFFF"/>
<stop offset="1" stop-color="#4A7C99"/>
</linearGradient>
</defs>
</svg>
