<svg width="48" height="49" viewBox="0 0 48 49" fill="none" xmlns="http://www.w3.org/2000/svg">
<path fill-rule="evenodd" clip-rule="evenodd" d="M3.13125 13.1121C3.3959 11.934 4.04647 10.8822 4.97642 10.1289C5.90637 9.37554 7.06057 8.96531 8.25 8.96539H39.75C40.9394 8.96531 42.0936 9.37554 43.0236 10.1289C43.9535 10.8822 44.6041 11.934 44.8687 13.1121L24 26.0694L3.13125 13.1121ZM3 16.1574V35.1014L18.2329 25.6134L3 16.1574ZM20.7476 27.1787L3.50138 37.9174C3.92748 38.8302 4.60001 39.6012 5.44068 40.1408C6.28135 40.6804 7.25558 40.9664 8.25 40.9654H39.75C40.7443 40.9656 41.7181 40.679 42.5583 40.139C43.3985 39.5989 44.0705 38.8276 44.496 37.9147L27.2498 27.1761L24 29.1947L20.7476 27.1761V27.1787ZM29.7671 25.6161L45 35.1014V16.1574L29.7671 25.6134V25.6161Z" fill="#25282B"/>
</svg>
