<svg width="48" height="49" viewBox="0 0 48 49" fill="none" xmlns="http://www.w3.org/2000/svg">
<path d="M5 8.68714C5 7.18377 6.24925 5.96539 7.79062 5.96539H40.2094C41.7507 5.96539 43 7.18377 43 8.68714V41.2436C43 42.747 41.7507 43.9654 40.2094 43.9654H7.79062C6.24925 43.9654 5 42.747 5 41.2436V8.68714ZM16.7396 37.7761V20.6168H11.0373V37.7761H16.7396ZM13.8896 18.2726C15.8775 18.2726 17.1149 16.9569 17.1149 15.3086C17.0792 13.6248 15.8799 12.3446 13.9276 12.3446C11.9754 12.3446 10.7 13.6271 10.7 15.3086C10.7 16.9569 11.9374 18.2726 13.8516 18.2726H13.8896ZM25.5461 37.7761V28.193C25.5461 27.68 25.5841 27.167 25.7361 26.8013C26.147 25.7776 27.0851 24.716 28.6621 24.716C30.726 24.716 31.5501 26.2883 31.5501 28.5968V37.7761H37.2525V27.9341C37.2525 22.6616 34.4405 20.2106 30.688 20.2106C27.6623 20.2106 26.3061 21.8731 25.5461 23.044V23.1034H25.5081C25.5207 23.0836 25.5334 23.0638 25.5461 23.044V20.6168H19.8461C19.9174 22.227 19.8461 37.7761 19.8461 37.7761H25.5461Z" fill="#25282B"/>
</svg>
