<svg width="166" height="133" viewBox="0 0 166 133" fill="none" xmlns="http://www.w3.org/2000/svg">
<mask id="mask0_73_254" style="mask-type:luminance" maskUnits="userSpaceOnUse" x="0" y="0" width="143" height="93">
<path d="M0.454102 0.604248H142.94V92.1262H0.454102V0.604248Z" fill="white"/>
</mask>
<g mask="url(#mask0_73_254)">
<mask id="mask1_73_254" style="mask-type:luminance" maskUnits="userSpaceOnUse" x="0" y="0" width="143" height="93">
<path d="M0.454102 0.604248H142.94V92.1262H0.454102V0.604248Z" fill="white"/>
</mask>
<g mask="url(#mask1_73_254)">
<path d="M142.81 43.1086C140.819 17.9368 116.733 -1.06908 89.077 0.721008C73.1489 1.7597 58.5562 9.73778 50.0336 22.0695C48.8924 23.7491 49.3781 25.937 51.1748 27.042L64.3107 35.1969C65.2334 35.7715 66.3746 35.9704 67.4429 35.7494C68.5355 35.5284 69.4582 34.9096 70.0409 34.0477C74.46 27.2851 82.2541 22.9093 90.8981 22.3347C105.442 21.3844 118.117 31.3957 119.161 44.6335C119.671 51.0425 117.388 57.2526 112.775 62.1146C108.162 66.9765 101.727 69.8937 94.6859 70.3578C84.2209 71.0429 74.2901 66.0263 69.4097 57.562C68.4141 55.8382 66.0832 55.131 64.1407 55.9487L49.718 62.0483C48.7225 62.4682 47.9698 63.2417 47.6056 64.1699C47.2414 65.1202 47.3142 66.1367 47.8241 67.0207C56.4195 82.557 73.7559 92.1262 92.5977 92.1262C93.7875 92.1262 95.0015 92.082 96.2155 92.0157C109.619 91.1538 121.832 85.5847 130.621 76.3469C139.435 67.1091 143.757 55.3078 142.81 43.1086ZM124.551 71.5291C117.17 79.2862 106.899 83.9493 95.6571 84.7007C80.0446 85.7173 65.3305 78.8663 57.0508 67.0428L64.2378 63.9931C70.648 72.5678 81.3315 77.7392 92.7677 77.7392C93.5932 77.7392 94.4188 77.7171 95.2443 77.6508C104.447 77.0541 112.824 73.2308 118.869 66.8881C124.915 60.5455 127.878 52.4569 127.222 44.081C125.862 26.7989 109.327 13.76 90.3396 14.9976C80.5302 15.6385 71.5221 20.0584 65.549 27.042L59.0903 23.0198C66.3988 14.3125 77.568 8.76538 89.6598 7.99188C112.872 6.48909 133.122 22.4452 134.773 43.5727C135.575 53.8713 131.932 63.7721 124.551 71.5291Z" fill="#1C3423"/>
</g>
<mask id="mask2_73_254" style="mask-type:luminance" maskUnits="userSpaceOnUse" x="0" y="0" width="143" height="93">
<path d="M0.454102 0.604248H142.94V92.1262H0.454102V0.604248Z" fill="white"/>
</mask>
<g mask="url(#mask2_73_254)">
<path d="M81.012 47.9042H93.0309C94.1236 47.9042 95.0219 47.0865 95.0219 46.092V44.987C95.0219 43.9925 94.1236 43.1748 93.0309 43.1748H81.3762H39.2734L42.6727 45.7384L39.8076 47.9042H81.012Z" fill="#1C3423"/>
</g>
<mask id="mask3_73_254" style="mask-type:luminance" maskUnits="userSpaceOnUse" x="0" y="0" width="143" height="93">
<path d="M0.454102 0.604248H142.94V92.1262H0.454102V0.604248Z" fill="white"/>
</mask>
<g mask="url(#mask3_73_254)">
<path d="M20.5585 45.7384L0.454102 57.9818H26.483L39.8131 47.9042L42.6783 45.7384H20.5585Z" fill="#67A97B"/>
</g>
<mask id="mask4_73_254" style="mask-type:luminance" maskUnits="userSpaceOnUse" x="0" y="0" width="143" height="93">
<path d="M0.454102 0.604248H142.94V92.1262H0.454102V0.604248Z" fill="white"/>
</mask>
<g mask="url(#mask4_73_254)">
<path d="M92.1363 35.9928C87.1102 35.9928 82.8368 38.9984 81.4043 43.1532H93.059C94.1516 43.1532 95.05 43.9709 95.05 44.9654V46.0704C95.05 47.0649 94.1516 47.8826 93.059 47.8826H81.04C81.9141 52.7666 86.5518 56.5015 92.1606 56.5015C98.3765 56.5015 103.427 51.9047 103.427 46.2472C103.403 40.5896 98.3522 35.9928 92.1363 35.9928Z" fill="#A4C868"/>
</g>
<mask id="mask5_73_254" style="mask-type:luminance" maskUnits="userSpaceOnUse" x="0" y="0" width="143" height="93">
<path d="M0.454102 0.604248H142.94V92.1262H0.454102V0.604248Z" fill="white"/>
</mask>
<g mask="url(#mask5_73_254)">
<path d="M26.483 33.4956H0.454102L20.5585 45.739H42.6783L39.279 43.1533L26.483 33.4956Z" fill="#A4C868"/>
</g>
</g>
<path d="M6.3802 124.837C6.04516 124.837 5.74879 124.761 5.49107 124.608C5.23335 124.456 5.10449 124.227 5.10449 123.922V100.242C5.10449 99.82 5.23335 99.5268 5.49107 99.3626C5.74879 99.1984 6.04516 99.1163 6.3802 99.1163C6.68946 99.1163 6.9665 99.1925 7.21134 99.345C7.45617 99.4975 7.68167 99.6969 7.88785 99.9432C8.09402 100.189 8.27442 100.453 8.42905 100.735L15.0782 112.416L21.7273 100.735C21.9077 100.453 22.0945 100.189 22.2878 99.9432C22.4811 99.6969 22.7066 99.4975 22.9643 99.345C23.2221 99.1925 23.4927 99.1163 23.7761 99.1163C24.137 99.1163 24.4398 99.1984 24.6846 99.3626C24.9294 99.5268 25.0519 99.82 25.0519 100.242V123.922C25.0519 124.227 24.923 124.456 24.6653 124.608C24.4076 124.761 24.1112 124.837 23.7761 124.837C23.4669 124.837 23.177 124.761 22.9063 124.608C22.6357 124.456 22.5004 124.227 22.5004 123.922V104.148L16.0833 115.196C15.9286 115.454 15.7611 115.642 15.5807 115.759C15.4003 115.876 15.2199 115.935 15.0395 115.935C14.8849 115.935 14.7174 115.882 14.537 115.777C14.3566 115.671 14.189 115.478 14.0344 115.196L7.6559 104.042V123.922C7.6559 124.227 7.5206 124.456 7.24999 124.608C6.97939 124.761 6.68946 124.837 6.3802 124.837ZM34.4468 125.083C33.0036 125.083 31.7665 124.702 30.7357 123.94C29.7048 123.177 29.1894 122.01 29.1894 120.439C29.1894 119.149 29.5695 118.158 30.3298 117.466C31.09 116.774 32.1467 116.293 33.4997 116.023C34.8527 115.753 36.4184 115.618 38.1966 115.618H40.1682V114.774C40.1682 114.023 40.02 113.278 39.7236 112.54C39.4272 111.801 38.9504 111.191 38.2933 110.71C37.6361 110.229 36.7405 109.989 35.6065 109.989C34.7561 109.989 34.0602 110.071 33.519 110.235C32.9778 110.399 32.5526 110.569 32.2433 110.745C31.9341 110.921 31.6763 111.009 31.4702 111.009C31.1609 111.009 30.9161 110.868 30.7357 110.587C30.5553 110.305 30.4651 110.036 30.4651 109.778C30.4651 109.473 30.7292 109.185 31.2576 108.915C31.7859 108.646 32.4559 108.423 33.2678 108.247C34.0796 108.071 34.8849 107.983 35.6839 107.983C37.4106 107.983 38.7829 108.306 39.8009 108.951C40.8189 109.596 41.5534 110.434 42.0044 111.466C42.4554 112.499 42.6809 113.601 42.6809 114.774V123.922C42.6809 124.18 42.5714 124.397 42.3523 124.573C42.1333 124.749 41.8304 124.837 41.4439 124.837C41.1346 124.837 40.864 124.749 40.632 124.573C40.4001 124.397 40.2841 124.18 40.2841 123.922V122.374C39.6141 123.054 38.8022 123.676 37.8487 124.239C36.8951 124.802 35.7612 125.083 34.4468 125.083ZM35.0653 123.148C35.9158 123.148 36.7276 122.949 37.5008 122.55C38.2739 122.151 38.9118 121.664 39.4143 121.09C39.9169 120.515 40.1682 119.97 40.1682 119.454V117.202H38.5445C37.3848 117.202 36.2831 117.266 35.2393 117.395C34.1955 117.524 33.3451 117.8 32.6879 118.222C32.0307 118.644 31.7021 119.313 31.7021 120.228C31.7021 121.236 32.0307 121.975 32.6879 122.444C33.3451 122.913 34.1376 123.148 35.0653 123.148ZM53.5046 125.083C52.2933 125.083 51.1594 124.772 50.1027 124.151C49.0461 123.529 48.2085 122.702 47.59 121.67C46.9714 120.638 46.6622 119.547 46.6622 118.398V114.563C46.6622 113.343 46.9714 112.241 47.59 111.255C48.2085 110.27 49.0461 109.478 50.1027 108.88C51.1594 108.282 52.3191 107.983 53.5819 107.983C54.8447 107.983 55.9078 108.259 56.7712 108.81C57.6345 109.361 58.2724 109.977 58.6847 110.657V98.8348C58.6847 98.5768 58.8136 98.3715 59.0713 98.2191C59.329 98.0666 59.6254 97.9904 59.9604 97.9904C60.347 97.9904 60.6498 98.0666 60.8689 98.2191C61.0879 98.3715 61.1975 98.5768 61.1975 98.8348V123.922C61.1975 124.157 61.0879 124.368 60.8689 124.555C60.6498 124.743 60.347 124.837 59.9604 124.837C59.6512 124.837 59.3806 124.743 59.1486 124.555C58.9167 124.368 58.8007 124.157 58.8007 123.922V122.374C58.3883 123.101 57.699 123.734 56.7325 124.274C55.7661 124.813 54.6901 125.083 53.5046 125.083ZM53.9298 122.972C54.8576 122.972 55.6759 122.755 56.3846 122.321C57.0933 121.887 57.6538 121.395 58.0662 120.843C58.4785 120.292 58.6847 119.841 58.6847 119.489V114.563C58.6847 113.624 58.4528 112.827 57.9889 112.17C57.525 111.513 56.9322 111.003 56.2106 110.64C55.489 110.276 54.7416 110.094 53.9685 110.094C53.0922 110.094 52.2933 110.311 51.5717 110.745C50.8501 111.179 50.2702 111.736 49.8321 112.416C49.394 113.097 49.1749 113.812 49.1749 114.563V118.398C49.1749 119.172 49.394 119.911 49.8321 120.615C50.2702 121.318 50.8501 121.887 51.5717 122.321C52.2933 122.755 53.0794 122.972 53.9298 122.972ZM73.6842 125.083C72.0606 125.083 70.6238 124.802 69.3739 124.239C68.124 123.676 67.1446 122.896 66.4359 121.899C65.7272 120.902 65.3728 119.735 65.3728 118.398V114.457C65.3728 113.284 65.7079 112.205 66.3779 111.22C67.048 110.235 67.9436 109.449 69.0646 108.863C70.1857 108.276 71.4163 107.983 72.7564 107.983C74.045 107.983 75.237 108.259 76.3323 108.81C77.4276 109.361 78.3103 110.118 78.9803 111.079C79.6504 112.041 79.9854 113.144 79.9854 114.387C79.9854 115.302 79.8179 115.953 79.4829 116.34C79.1479 116.727 78.7291 116.967 78.2265 117.061C77.724 117.155 77.1892 117.202 76.6222 117.202H67.8856V118.504C67.8856 119.911 68.4397 121.025 69.5479 121.846C70.6561 122.667 72.0606 123.078 73.7616 123.078C74.7924 123.078 75.5913 122.96 76.1583 122.726C76.7253 122.491 77.1699 122.257 77.492 122.022C77.8142 121.788 78.117 121.67 78.4005 121.67C78.6067 121.67 78.7935 121.735 78.961 121.864C79.1285 121.993 79.2574 122.139 79.3476 122.304C79.4378 122.468 79.4829 122.62 79.4829 122.761C79.4829 123.019 79.2509 123.336 78.787 123.711C78.3232 124.086 77.6531 124.409 76.7768 124.679C75.9006 124.948 74.8697 125.083 73.6842 125.083ZM67.8856 115.513H75.6171C76.3903 115.513 76.9057 115.437 77.1634 115.284C77.4211 115.132 77.55 114.809 77.55 114.316C77.55 113.566 77.3503 112.85 76.9508 112.17C76.5513 111.49 75.9844 110.939 75.2499 110.516C74.5154 110.094 73.6714 109.883 72.7178 109.883C71.8416 109.883 71.0362 110.077 70.3017 110.464C69.5672 110.851 68.9809 111.367 68.5428 112.012C68.1046 112.657 67.8856 113.378 67.8856 114.176V115.513ZM85.4365 124.837C85.1014 124.837 84.8244 124.749 84.6053 124.573C84.3863 124.397 84.2767 124.192 84.2767 123.957V99.9959C84.2767 99.7145 84.3992 99.4975 84.644 99.345C84.8888 99.1925 85.153 99.1163 85.4365 99.1163H91.7763C93.2195 99.1163 94.5403 99.2688 95.7387 99.5737C96.9371 99.8786 97.8907 100.459 98.5994 101.315C99.3081 102.172 99.6625 103.432 99.6625 105.098C99.6625 106.576 99.3597 107.813 98.754 108.81C98.1484 109.807 97.3559 110.505 96.3766 110.903C97.1755 111.185 97.8714 111.572 98.4641 112.065C99.0569 112.557 99.5207 113.191 99.8558 113.965C100.191 114.739 100.358 115.736 100.358 116.955V117.589C100.358 119.371 100.023 120.791 99.3532 121.846C98.6832 122.902 97.7683 123.664 96.6085 124.133C95.4488 124.602 94.1602 124.837 92.7428 124.837H85.4365ZM86.8281 122.691H92.3949C94.0958 122.691 95.423 122.274 96.3766 121.442C97.3301 120.609 97.8069 119.289 97.8069 117.483V116.885C97.8069 115.055 97.3301 113.765 96.3766 113.015C95.423 112.264 94.0958 111.889 92.3949 111.889H86.8281V122.691ZM86.8281 109.883H91.8536C93.6577 109.883 94.9849 109.543 95.8354 108.863C96.6858 108.182 97.1111 107.01 97.1111 105.344C97.1111 104.242 96.8791 103.397 96.4152 102.811C95.9513 102.224 95.3199 101.82 94.521 101.597C93.7221 101.374 92.7814 101.263 91.699 101.263H86.8281V109.883ZM103.646 133C103.311 133 103.034 132.924 102.815 132.771C102.596 132.619 102.486 132.355 102.486 131.98C102.486 131.698 102.544 131.452 102.66 131.241C102.776 131.03 102.976 130.924 103.259 130.924C103.878 130.924 104.471 130.748 105.038 130.396C105.605 130.044 106.133 129.546 106.623 128.901C107.112 128.256 107.55 127.529 107.937 126.719C108.323 125.91 108.633 125.048 108.865 124.133L102.563 109.39C102.486 109.273 102.448 109.168 102.448 109.074C102.448 108.863 102.531 108.675 102.699 108.511C102.866 108.347 103.072 108.218 103.317 108.124C103.562 108.03 103.788 107.983 103.994 107.983C104.2 107.983 104.387 108.024 104.554 108.106C104.722 108.188 104.831 108.311 104.883 108.476L110.179 121.424L115.166 108.476C115.243 108.311 115.359 108.188 115.514 108.106C115.668 108.024 115.836 107.983 116.016 107.983C116.223 107.983 116.448 108.03 116.693 108.124C116.938 108.218 117.144 108.347 117.311 108.511C117.479 108.675 117.563 108.874 117.563 109.109C117.563 109.226 117.537 109.32 117.485 109.39L111.493 124.168C111.107 125.107 110.694 126.092 110.256 127.124C109.818 128.156 109.309 129.112 108.729 129.992C108.15 130.871 107.447 131.593 106.623 132.156C105.798 132.719 104.806 133 103.646 133ZM122.356 124.837C122.021 124.837 121.724 124.761 121.466 124.608C121.209 124.456 121.08 124.227 121.08 123.922V99.9607C121.08 99.6558 121.209 99.4388 121.466 99.3098C121.724 99.1808 122.021 99.1163 122.356 99.1163C122.665 99.1163 122.955 99.1808 123.225 99.3098C123.496 99.4388 123.631 99.6558 123.631 99.9607V112.416L134.803 99.4682C134.984 99.2336 135.254 99.1163 135.615 99.1163C135.821 99.1163 136.034 99.1749 136.253 99.2922C136.472 99.4095 136.652 99.5561 136.794 99.732C136.936 99.908 137.007 100.101 137.007 100.313C137.007 100.383 136.994 100.471 136.968 100.576C136.942 100.682 136.891 100.77 136.814 100.84L128.502 110.235L138.012 123.254C138.115 123.394 138.167 123.547 138.167 123.711C138.167 123.922 138.096 124.116 137.954 124.292C137.812 124.468 137.632 124.608 137.413 124.714C137.194 124.819 136.955 124.872 136.698 124.872C136.517 124.872 136.343 124.831 136.176 124.749C136.008 124.667 135.86 124.544 135.731 124.38L126.801 112.17L123.631 115.829V123.922C123.631 124.227 123.496 124.456 123.225 124.608C122.955 124.761 122.665 124.837 122.356 124.837ZM144.816 125.083C143.373 125.083 142.136 124.702 141.105 123.94C140.074 123.177 139.559 122.01 139.559 120.439C139.559 119.149 139.939 118.158 140.699 117.466C141.459 116.774 142.516 116.293 143.869 116.023C145.222 115.753 146.788 115.618 148.566 115.618H150.537V114.774C150.537 114.023 150.389 113.278 150.093 112.54C149.796 111.801 149.32 111.191 148.663 110.71C148.005 110.229 147.11 109.989 145.976 109.989C145.125 109.989 144.429 110.071 143.888 110.235C143.347 110.399 142.922 110.569 142.613 110.745C142.303 110.921 142.046 111.009 141.839 111.009C141.53 111.009 141.285 110.868 141.105 110.587C140.925 110.305 140.834 110.036 140.834 109.778C140.834 109.473 141.098 109.185 141.627 108.915C142.155 108.646 142.825 108.423 143.637 108.247C144.449 108.071 145.254 107.983 146.053 107.983C147.78 107.983 149.152 108.306 150.17 108.951C151.188 109.596 151.923 110.434 152.374 111.466C152.825 112.499 153.05 113.601 153.05 114.774V123.922C153.05 124.18 152.941 124.397 152.722 124.573C152.502 124.749 152.2 124.837 151.813 124.837C151.504 124.837 151.233 124.749 151.001 124.573C150.769 124.397 150.653 124.18 150.653 123.922V122.374C149.983 123.054 149.171 123.676 148.218 124.239C147.264 124.802 146.13 125.083 144.816 125.083ZM145.435 123.148C146.285 123.148 147.097 122.949 147.87 122.55C148.643 122.151 149.281 121.664 149.784 121.09C150.286 120.515 150.537 119.97 150.537 119.454V117.202H148.914C147.754 117.202 146.652 117.266 145.609 117.395C144.565 117.524 143.714 117.8 143.057 118.222C142.4 118.644 142.071 119.313 142.071 120.228C142.071 121.236 142.4 121.975 143.057 122.444C143.714 122.913 144.507 123.148 145.435 123.148ZM163.758 124.837C161.773 124.837 160.253 124.426 159.196 123.605C158.14 122.784 157.611 121.471 157.611 119.665V101.122C157.611 100.864 157.747 100.659 158.017 100.506C158.288 100.354 158.565 100.277 158.848 100.277C159.183 100.277 159.48 100.354 159.737 100.506C159.995 100.659 160.124 100.864 160.124 101.122V108.194H165.15C165.407 108.194 165.613 108.288 165.768 108.476C165.923 108.663 166 108.886 166 109.144C166 109.402 165.923 109.625 165.768 109.813C165.613 110 165.407 110.094 165.15 110.094H160.124V119.665C160.124 120.814 160.395 121.617 160.936 122.075C161.477 122.532 162.418 122.761 163.758 122.761H164.84C165.201 122.761 165.478 122.861 165.671 123.06C165.865 123.259 165.961 123.5 165.961 123.781C165.961 124.063 165.865 124.309 165.671 124.52C165.478 124.731 165.201 124.837 164.84 124.837H163.758Z" fill="#1C3423"/>
</svg>
