<svg width="219" height="216" viewBox="0 0 219 216" fill="none" xmlns="http://www.w3.org/2000/svg">
<rect width="219" height="216" rx="80" fill="#403C3C"/>
<path d="M50.2525 69.5667C53.2322 58.7091 63.1021 51.1829 74.3611 51.1829H96.7895L71.422 145.505C68.4856 156.424 58.5864 164.012 47.2799 164.012H24.3335L50.2525 69.5667Z" fill="#7CCFFF"/>
<path d="M101.487 69.4875C104.494 58.6691 114.345 51.1829 125.573 51.1829H148.067L134.589 101.297C131.652 112.216 121.753 119.804 110.446 119.804H87.5L101.487 69.4875Z" fill="#7CCFFF"/>
<path d="M170.114 147.394C167.213 158.36 157.29 165.999 145.945 165.999H123.08L123.082 165.991H69.791L75.7988 144.377C78.8061 133.559 88.6574 126.072 99.8857 126.072H133.859L149.054 69.7939C151.999 58.8872 161.892 51.3107 173.189 51.3105H195.536L170.114 147.394Z" fill="#7CCFFF"/>
<mask id="mask0_133_784" style="mask-type:alpha" maskUnits="userSpaceOnUse" x="87" y="51" width="62" height="69">
<path d="M101.487 69.4875C104.494 58.6691 114.345 51.1829 125.573 51.1829H148.067L134.589 101.297C131.652 112.216 121.753 119.804 110.446 119.804H87.5L101.487 69.4875Z" fill="#FEFD97"/>
</mask>
<g mask="url(#mask0_133_784)">
<circle cx="119.393" cy="103.639" r="20.775" transform="rotate(180 119.393 103.639)" fill="#FFCDCD"/>
<circle cx="121.311" cy="105.556" r="17.5788" transform="rotate(180 121.311 105.556)" fill="#FFB0B0"/>
<circle cx="122.589" cy="106.835" r="14.3827" transform="rotate(180 122.589 106.835)" fill="#FF8D8D"/>
<circle cx="124.507" cy="108.753" r="11.1865" transform="rotate(180 124.507 108.753)" fill="#FF6B6B"/>
</g>
</svg>
